# xmcd
#
# Track frame offsets:
#	150
#	11272
#	25186
#	33153
#	43162
#	52604
#	61680
#	73297
#	84484
#	97240
#	108655
#	115765
#	128571
#	140782
#	154526
#	164181
#	176648
#	186322
#	200941
#	214586
#	224401
#	233938
#	243425
#	255988
#	264797
#	279252
#	288083
#	300048
#
# Disc length: 4136 seconds
#
# Revision: 0
# Processed by: cddbd v1.5.2PL0 Copyright (c) Steve Scherf et al.
# Submitted via: EZCDAudioConverter 3.1.0.1
#
DISCID=8910261c
DTITLE=Varios Artistas - 28 Exitos Del Verano De La Nueva Ola
DYEAR=2010
DGENRE=Recuerdos
TTITLE0=Willy Monty - Contigo En Verano
TTITLE1=The Ramblers - Paseando En La Playa
TTITLE2=Larry Wilson - Trabajo De Verano
TTITLE3=The Rockets - Playa Solitaria
TTITLE4=Luz Eliana - Aunque Se
TTITLE5=Los Ecos - Este Verano Sera
TTITLE6=Buddy Richard - Al Final De La Tarde
TTITLE7=Los Harmonics - Mar, Cielo Y Amor
TTITLE8=Carlos Gonzalez - Sabor A Salado
TTITLE9=Sergio Inostroza - Playa
TTITLE10=Lus Eliana Y Larry Wilson - Cantando En El Fondo Del Mar
TTITLE11=Myriam Luz - Verano Y Amor
TTITLE12=Antonio Zabaleta - Viva El Verano
TTITLE13=Alan Y Sus Bates - Una Noche De Verano
TTITLE14=Larry Wilson - Otro Verano
TTITLE15=Los Ecos - Vuelve A Mi Barquita
TTITLE16=Pepe Gallinato - Amor En Febrero
TTITLE17=Alan Y Sus Bates - Recuerdos De Verano
TTITLE18=Tiza - Vacaciones De Verano
TTITLE19=Carlos Gonzalez - Esta Noche Ire
TTITLE20=Sergio Inostroza - Senorita Surfing
TTITLE21=Larry Wilson - Besos De Verano
TTITLE22=Los Gatos Canta Marianela - Yo Sin Ti
TTITLE23=The Rockets - Dos Para Una Playa
TTITLE24=Clan 91 Con Los Rockets - Cuando Cae El Sol
TTITLE25=Luz Eliana - Te Voy A Esperar
TTITLE26=Luis Dimas - Playa Triste
TTITLE27=Doris Y Rossi - La Chica De Ipanema
EXTD=
EXTT0=
EXTT1=
EXTT2=
EXTT3=
EXTT4=
EXTT5=
EXTT6=
EXTT7=
EXTT8=
EXTT9=
EXTT10=
EXTT11=
EXTT12=
EXTT13=
EXTT14=
EXTT15=
EXTT16=
EXTT17=
EXTT18=
EXTT19=
EXTT20=
EXTT21=
EXTT22=
EXTT23=
EXTT24=
EXTT25=
EXTT26=
EXTT27=
PLAYORDER=
